# xmcd
#
# Track frame offsets:
#	150
#	17003
#	35610
#	52498
#
# Disc length: 884 seconds
# Revision: 0
# Processed by: cddbd v1.5.2PL0 Copyright (c) Steve Scherf et al.
# Submitted via: dBpowerAMP V12.0
#
DISCID=33037204
DTITLE=Angels With Dirty Faces - Angels With Dirty Faces ep
DYEAR=2016
DGENRE=Pop/Rock
TTITLE0=How Long The Wait
TTITLE1=P.S. I Loved You
TTITLE2=Without Wings
TTITLE3=I Leaned On
EXTD=
EXTT0=
EXTT1=
EXTT2=
EXTT3=
PLAYORDER=
